<?xml version="1.0" encoding="UTF-8" standalone="no" ?>
<!DOCTYPE svg PUBLIC "-//W3C//DTD SVG 1.1//EN" "http://www.w3.org/Graphics/SVG/1.1/DTD/svg11.dtd">
<svg xmlns="http://www.w3.org/2000/svg"
    xmlns:xlink="http://www.w3.org/1999/xlink" version="1.1" width="84" height="32" viewBox="0 0 84 32" fill="none" xml:space="preserve">
    <desc>Created with Fabric.js 5.2.4</desc>
    <defs>
    </defs>
    <g transform="matrix(1 0 0 1 540 540)" id="fa41c7a7-fa39-4b6c-96cb-bcb458ff4193">
        <rect style="stroke: none; stroke-width: 1; stroke-dasharray: none; stroke-linecap: butt; stroke-dashoffset: 0; stroke-linejoin: miter; stroke-miterlimit: 4; fill: rgb(255,255,255); fill-rule: nonzero; opacity: 1; visibility: hidden;" vector-effect="non-scaling-stroke" x="-540" y="-540" rx="0" ry="0" width="1080" height="1080" />
    </g>
    <g transform="matrix(1 0 0 1 540 540)" id="d7ea5e24-fb6a-41b9-acd5-af0fd0af213b">
    </g>
    <g transform="matrix(0.38 0 0 0.38 11.36 16.72)">
        <path style="stroke: none; stroke-width: 1; stroke-dasharray: none; stroke-linecap: butt; stroke-dashoffset: 0; stroke-linejoin: miter; stroke-miterlimit: 4; fill: rgb(255,145,77); fill-rule: nonzero; opacity: 1;" vector-effect="non-scaling-stroke" transform=" translate(-423.81, -284.12)" d="M 430.464844 253.265625 C 431.691406 253.265625 433.226562 253.417969 435.066406 253.726562 C 436.910156 254.03125 438.390625 254.378906 439.511719 254.769531 L 439.511719 264.566406 L 435.660156 264.566406 C 433.875 264.566406 432.644531 264.902344 431.976562 265.570312 C 431.304688 266.242188 430.972656 267.386719 430.972656 269 L 430.972656 270.761719 L 439.511719 270.761719 L 439.511719 282.0625 L 430.972656 282.0625 L 430.972656 314.964844 L 414.3125 314.964844 L 414.3125 282.0625 L 408.113281 282.0625 L 408.113281 270.761719 L 414.3125 270.761719 L 414.3125 268.917969 C 414.3125 263.222656 415.707031 259.195312 418.496094 256.824219 C 421.285156 254.453125 425.273438 253.265625 430.464844 253.265625 Z M 430.464844 253.265625" stroke-linecap="round" />
    </g>
    <g transform="matrix(0.38 0 0 0.38 26.43 20.07)">
        <path style="stroke: none; stroke-width: 1; stroke-dasharray: none; stroke-linecap: butt; stroke-dashoffset: 0; stroke-linejoin: miter; stroke-miterlimit: 4; fill: rgb(255,145,77); fill-rule: nonzero; opacity: 1;" vector-effect="non-scaling-stroke" transform=" translate(-463.16, -292.86)" d="M 463.113281 269.753906 C 471.210938 269.753906 477.390625 271.652344 481.660156 275.449219 C 485.929688 279.246094 488.066406 285.050781 488.066406 292.863281 L 488.066406 295.710938 L 454.910156 295.710938 C 454.910156 298.890625 455.621094 301.289062 457.046875 302.910156 C 458.46875 304.53125 460.714844 305.339844 463.78125 305.339844 C 466.574219 305.339844 468.628906 304.753906 469.941406 303.585938 C 471.25 302.410156 471.90625 300.847656 471.90625 298.886719 L 488.066406 298.886719 C 488.066406 304.25 486.027344 308.4375 481.953125 311.453125 C 477.878906 314.464844 471.933594 315.972656 464.121094 315.972656 C 455.914062 315.972656 449.554688 314.0625 445.03125 310.238281 C 440.511719 306.414062 438.253906 300.621094 438.253906 292.863281 C 438.253906 285.269531 440.457031 279.523438 444.863281 275.617188 C 449.273438 271.710938 455.355469 269.753906 463.113281 269.753906 Z M 463.78125 280.386719 C 458.539062 280.386719 455.609375 282.871094 455 287.835938 L 471.238281 287.835938 C 471.238281 285.550781 470.582031 283.738281 469.273438 282.398438 C 467.960938 281.058594 466.128906 280.386719 463.78125 280.386719 Z M 463.78125 280.386719" stroke-linecap="round" />
    </g>
    <g transform="matrix(0.38 0 0 0.38 45.97 20.07)">
        <path style="stroke: none; stroke-width: 1; stroke-dasharray: none; stroke-linecap: butt; stroke-dashoffset: 0; stroke-linejoin: miter; stroke-miterlimit: 4; fill: rgb(255,145,77); fill-rule: nonzero; opacity: 1;" vector-effect="non-scaling-stroke" transform=" translate(-514.22, -292.86)" d="M 514.179688 269.753906 C 522.273438 269.753906 528.457031 271.652344 532.722656 275.449219 C 536.992188 279.246094 539.128906 285.050781 539.128906 292.863281 L 539.128906 295.710938 L 505.976562 295.710938 C 505.976562 298.890625 506.6875 301.289062 508.109375 302.910156 C 509.535156 304.53125 511.777344 305.339844 514.847656 305.339844 C 517.640625 305.339844 519.691406 304.753906 521.003906 303.585938 C 522.316406 302.410156 522.96875 300.847656 522.96875 298.886719 L 539.128906 298.886719 C 539.128906 304.25 537.089844 308.4375 533.015625 311.453125 C 528.941406 314.464844 522.996094 315.972656 515.183594 315.972656 C 506.980469 315.972656 500.617188 314.0625 496.097656 310.238281 C 491.578125 306.414062 489.316406 300.621094 489.316406 292.863281 C 489.316406 285.269531 491.519531 279.523438 495.929688 275.617188 C 500.335938 271.710938 506.417969 269.753906 514.179688 269.753906 Z M 514.847656 280.386719 C 509.601562 280.386719 506.675781 282.871094 506.0625 287.835938 L 522.300781 287.835938 C 522.300781 285.550781 521.648438 283.738281 520.335938 282.398438 C 519.023438 281.058594 517.195312 280.386719 514.847656 280.386719 Z M 514.847656 280.386719" stroke-linecap="round" />
    </g>
    <g transform="matrix(0.38 0 0 0.38 65.13 17.11)">
        <path style="stroke: none; stroke-width: 1; stroke-dasharray: none; stroke-linecap: butt; stroke-dashoffset: 0; stroke-linejoin: miter; stroke-miterlimit: 4; fill: rgb(255,145,77); fill-rule: nonzero; opacity: 1;" vector-effect="non-scaling-stroke" transform=" translate(-564.24, -285.12)" d="M 574.539062 314.964844 L 573.117188 308.683594 C 569.878906 313.542969 565.1875 315.972656 559.050781 315.972656 C 553.074219 315.972656 548.46875 314.019531 545.230469 310.113281 C 541.996094 306.207031 540.378906 300.429688 540.378906 292.78125 C 540.378906 285.191406 541.996094 279.453125 545.230469 275.574219 C 548.46875 271.695312 553.074219 269.753906 559.050781 269.753906 C 564.128906 269.753906 568.257812 271.457031 571.4375 274.863281 L 571.4375 254.265625 L 588.101562 254.265625 L 588.101562 314.964844 Z M 564.238281 282.0625 C 559.4375 282.0625 557.039062 284.9375 557.039062 290.683594 L 557.039062 295.125 C 557.039062 300.816406 559.4375 303.664062 564.238281 303.664062 C 566.695312 303.664062 568.535156 302.800781 569.765625 301.066406 C 570.992188 299.335938 571.605469 297.078125 571.605469 294.285156 L 571.605469 291.519531 C 571.605469 288.734375 570.992188 286.460938 569.765625 284.703125 C 568.535156 282.941406 566.695312 282.0625 564.238281 282.0625 Z M 564.238281 282.0625" stroke-linecap="round" />
    </g>
    <g transform="matrix(0.38 0 0 0.38 79.73 25.33)">
        <path style="stroke: none; stroke-width: 1; stroke-dasharray: none; stroke-linecap: butt; stroke-dashoffset: 0; stroke-linejoin: miter; stroke-miterlimit: 4; fill: rgb(255,145,77); fill-rule: nonzero; opacity: 1;" vector-effect="non-scaling-stroke" transform=" translate(-602.41, -306.64)" d="M 593.535156 298.308594 L 611.289062 298.308594 L 611.289062 314.964844 L 593.535156 314.964844 Z M 593.535156 298.308594" stroke-linecap="round" />
    </g>
</svg>